<?xml version="1.0" encoding="UTF-8"?> <svg xmlns="http://www.w3.org/2000/svg" width="499" height="343" viewBox="0 0 499 343" fill="none"><g clip-path="url(#clip0_483_137)"><path d="M299.627 37.4398V34.071C299.627 32.1352 298.961 31.8022 297.025 31.8022V39.7085C298.961 39.7085 299.627 39.3723 299.627 37.4398Z" fill="#1C201F"></path><path d="M101.333 48.8128C102.437 48.8128 102.603 48.1469 102.603 45.8782V34.4039C102.603 32.1352 102.437 31.4692 101.333 31.4692C100.233 31.4692 100.067 32.1352 100.067 34.4039V45.8782C100.067 48.1469 100.233 48.8128 101.333 48.8128Z" fill="#1C201F"></path><path d="M141.815 46.2111V34.071C141.815 32.1352 141.149 31.8022 139.213 31.8022V48.4799C141.149 48.4799 141.815 48.1469 141.815 46.2111Z" fill="#1C201F"></path><path d="M114.104 31.8022V39.7085C116.039 39.7085 116.705 39.3723 116.705 37.4398V34.071C116.705 32.1352 116.039 31.8022 114.104 31.8022Z" fill="#1C201F"></path><path d="M41.6837 46.2111V34.071C41.6837 32.1352 41.0178 31.8022 39.0822 31.8022V48.4799C41.0178 48.4799 41.6837 48.1469 41.6837 46.2111Z" fill="#1C201F"></path><path d="M341.871 36.4376V34.071C341.871 32.1352 341.205 31.8022 339.27 31.8022V38.7064C341.205 38.7064 341.871 38.3734 341.871 36.4376Z" fill="#1C201F"></path><path d="M373.545 31.4692C372.445 31.4692 372.279 32.1352 372.279 34.4039V45.8782C372.279 48.1469 372.445 48.8128 373.545 48.8128C374.649 48.8128 374.815 48.1469 374.815 45.8782V34.4039C374.815 32.1352 374.649 31.4692 373.545 31.4692Z" fill="#1C201F"></path><path d="M326.499 48.8128C327.603 48.8128 327.769 48.1469 327.769 45.8782V34.4039C327.769 32.1352 327.603 31.4692 326.499 31.4692C325.399 31.4692 325.233 32.1352 325.233 34.4039V45.8782C325.233 48.1469 325.399 48.8128 326.499 48.8128Z" fill="#1C201F"></path><path d="M0 0V342.871H498.042V0H0ZM425.824 26.7979H435.333V31.8022H430.828V37.6389H435.333V42.6431H430.828V48.4798H435.333V53.4841H425.824V26.7979ZM411.187 26.7979H416.191V37.6389H419.328V26.7979H424.329V53.4841H419.328V42.6431H416.191V53.4841H411.187V26.7979ZM397.816 26.7979H409.692V31.8022H406.258V53.4841H401.253V31.8022H397.816V26.7979ZM348.403 26.7979H360.279V31.8022H356.845V53.4841H351.841V31.8022H348.403V26.7979ZM334.265 26.7979H339.27C344.972 26.7979 346.876 28.6978 346.876 34.0709V36.4376C346.876 39.3722 345.975 41.2753 344.408 42.4081C346.108 43.1099 346.876 44.4777 346.876 46.9782V51.1141C346.876 52.1163 346.908 53.0825 347.241 53.4841H342.237C341.904 53.0825 341.871 52.1163 341.871 51.1141V45.9793C341.871 44.0435 341.205 43.7106 339.27 43.7106V53.4841H334.265V26.7979ZM320.229 34.0709C320.229 28.6978 322.465 26.4649 326.499 26.4649C330.537 26.4649 332.77 28.6978 332.77 34.0709V46.2111C332.77 51.5842 330.537 53.817 326.499 53.817C322.465 53.817 320.229 51.5842 320.229 46.2111V34.0709ZM306.123 26.7979H311.128C316.83 26.7979 318.733 28.6978 318.733 34.0709V37.4397C318.733 42.7443 316.83 44.6115 311.128 44.7095V53.4841H306.123V26.7979ZM292.021 26.7979H297.025C302.728 26.7979 304.631 28.6978 304.631 34.0709V37.4397C304.631 42.7443 302.728 44.6115 297.025 44.7095V53.4841H292.021V26.7979ZM277.981 26.7979H282.985V45.8781C282.985 48.1469 283.152 48.8127 284.252 48.8127C285.355 48.8127 285.522 48.1469 285.522 45.8781V26.7979H290.523V46.2111C290.523 51.5842 288.29 53.817 284.252 53.817C280.217 53.817 277.981 51.5842 277.981 46.2111V26.7979ZM268.949 42.0098C266.513 40.0414 263.944 38.4386 263.944 33.4017C263.944 29.034 265.779 26.4649 269.984 26.4649C274.185 26.4649 276.153 29.034 276.153 34.7368H271.149C271.149 32.1351 270.751 31.4692 269.984 31.4692C269.216 31.4692 268.949 32.1351 268.949 33.4017C268.949 35.3375 269.817 36.1046 271.684 37.5377C274.485 39.6725 276.486 41.5071 276.486 46.5473C276.486 51.248 274.72 53.817 270.349 53.817C265.981 53.817 263.944 51.9172 263.944 44.21H268.949C268.949 48.1469 269.416 48.8127 270.349 48.8127C271.283 48.8127 271.485 48.1469 271.485 46.5473C271.485 44.6115 271.149 43.8118 268.949 42.0098ZM232.802 26.7979H237.807V37.6389H240.944V26.7979H245.945V53.4841H240.944V42.6431H237.807V53.4841H232.802V26.7979ZM219.432 26.7979H231.307V31.8022H227.873V53.4841H222.869V31.8022H219.432V26.7979ZM199.294 26.7979H204.298V37.6389H207.435V26.7979H212.436V53.4841H207.435V42.6431H204.298V53.4841H199.294V26.7979ZM185.923 26.7979H197.799V31.8022H194.365V53.4841H189.36V31.8022H185.923V26.7979ZM179.42 26.7979H184.425V53.4841H179.42V26.7979ZM153.815 26.7979H158.819V47.9118L161.355 26.7979H170.061V47.9118L172.594 26.7979H178.268L173.662 53.4841H165.057V33.9697L162.423 53.4841H153.815V26.7979ZM95.0626 34.0709C95.0626 28.6978 97.2987 26.4649 101.333 26.4649C105.371 26.4649 107.604 28.6978 107.604 34.0709V46.2111C107.604 51.5842 105.371 53.817 101.333 53.817C97.2987 53.817 95.0626 51.5842 95.0626 46.2111V34.0709ZM84.3915 26.7979H89.3956V48.4798H93.9005V53.4841H84.3915V26.7979ZM73.3905 26.7979H82.8995V31.8022H78.3948V37.6389H82.8995V42.6431H78.3948V48.4798H82.8995V53.4841H73.3905V26.7979ZM63.8553 26.7979L65.556 48.1794L67.2241 26.7979H72.2284L68.9575 53.4841H62.1219L58.8511 26.7979H63.8553ZM48.1831 26.7979H57.6923V31.8022H53.1874V37.6389H57.6923V42.6431H53.1874V48.4798H57.6923V53.4841H48.1831V26.7979ZM34.0778 26.7979H39.0822C44.7849 26.7979 46.6881 28.6978 46.6881 34.0709V46.2111C46.6881 51.5156 44.7849 53.4841 39.0822 53.4841H34.0778V26.7979ZM120.581 114.534H79.6062V167.65H120.581V213.175H79.6062V266.292H120.581V311.82H34.0778V69.0054H120.581V114.534ZM121.71 37.4397C121.71 42.7443 119.807 44.6115 114.104 44.7095V53.4841H109.099V26.7979H114.104C119.807 26.7979 121.71 28.6978 121.71 34.0709V37.4397ZM132.714 31.8022H128.209V37.6389H132.714V42.6431H128.209V48.4798H132.714V53.4841H123.205V26.7979H132.714V31.8022ZM134.209 26.7979H139.213C144.916 26.7979 146.819 28.6978 146.819 34.0709V46.2111C146.819 51.5156 144.916 53.4841 139.213 53.4841H134.209V26.7979ZM248.344 245.652C248.344 294.52 228.009 314.855 191.283 314.855C154.557 314.855 134.222 294.52 134.222 245.652V69.0054H179.75V242.618C179.75 263.257 181.269 269.326 191.283 269.326C201.3 269.326 202.819 263.257 202.819 242.618V69.0054H248.344V245.652ZM256.949 31.8022H252.444V37.6389H256.949V42.6431H252.444V48.4798H256.949V53.4841H247.44V26.7979H256.949V31.8022ZM376.104 167.65H330.579V138.208C330.579 117.568 329.06 111.499 319.043 111.499C309.029 111.499 307.51 117.568 307.51 138.208V242.618C307.51 263.257 309.029 269.326 319.043 269.326C329.06 269.326 330.579 263.257 330.579 242.618V213.175H376.104V245.652C376.104 294.52 355.768 314.855 319.043 314.855C282.317 314.855 261.982 294.52 261.982 245.652V135.173C261.982 86.3061 282.317 65.9708 319.043 65.9708C355.768 65.9708 376.104 86.3061 376.104 135.173V167.65ZM379.816 46.2111C379.816 51.5842 377.583 53.817 373.545 53.817C369.511 53.817 367.275 51.5842 367.275 46.2111V34.0709C367.275 28.6978 369.511 26.4649 373.545 26.4649C377.583 26.4649 379.816 28.6978 379.816 34.0709V46.2111ZM386.316 53.4841H381.311V26.7979H390.82V31.8022H386.316V38.974H390.82V43.9782H386.316V53.4841ZM476.248 311.82H389.745V69.0054H435.273V266.292H476.248V311.82Z" fill="#1C201F"></path><path d="M313.729 37.4398V34.071C313.729 32.1352 313.063 31.8022 311.127 31.8022V39.7085C313.063 39.7085 313.729 39.3723 313.729 37.4398Z" fill="#1C201F"></path></g><defs><clipPath id="clip0_483_137"><rect width="498.042" height="342.871" fill="white"></rect></clipPath></defs></svg> 