<?xml version="1.0" encoding="UTF-8"?> <svg xmlns="http://www.w3.org/2000/svg" width="1013" height="633" viewBox="0 0 1013 633" fill="none"><g clip-path="url(#clip0_483_161)"><path d="M368.74 412.78C367.441 412.796 366.154 412.526 364.97 411.99C363.856 411.485 362.854 410.765 362.02 409.87C361.187 408.954 360.536 407.889 360.1 406.73C359.18 404.229 359.18 401.481 360.1 398.98C360.539 397.825 361.198 396.765 362.04 395.86C362.889 394.966 363.91 394.252 365.04 393.76C366.24 393.258 367.529 392.999 368.83 392.999C370.131 392.999 371.42 393.258 372.62 393.76C373.75 394.258 374.77 394.975 375.62 395.87C376.47 396.779 377.132 397.846 377.57 399.01C378.53 401.476 378.53 404.214 377.57 406.68C377.121 407.859 376.441 408.937 375.57 409.85C374.734 410.766 373.711 411.493 372.57 411.98C371.353 412.512 370.038 412.781 368.71 412.77M381.71 389.96C380.018 388.304 378.03 386.981 375.85 386.06C372.505 384.66 368.82 384.282 365.26 384.974C361.701 385.666 358.426 387.398 355.85 389.95C354.2 391.609 352.886 393.572 351.98 395.73C351.03 397.978 350.54 400.394 350.54 402.835C350.54 405.276 351.03 407.692 351.98 409.94C352.893 412.104 354.217 414.071 355.88 415.73C357.544 417.399 359.513 418.733 361.68 419.66C363.914 420.629 366.325 421.119 368.76 421.1C371.224 421.125 373.667 420.635 375.93 419.66C378.1 418.728 380.075 417.395 381.75 415.73C383.446 414.078 384.805 412.111 385.75 409.94C386.711 407.697 387.201 405.28 387.19 402.84C387.205 400.403 386.714 397.989 385.75 395.75C384.795 393.584 383.437 391.62 381.75 389.96" fill="#1C201F"></path><path d="M396.59 418.82C396.571 419.047 396.603 419.275 396.682 419.489C396.761 419.703 396.886 419.896 397.048 420.056C397.21 420.216 397.405 420.339 397.62 420.416C397.834 420.492 398.063 420.521 398.29 420.5H403.9C404.123 420.517 404.348 420.485 404.557 420.406C404.767 420.327 404.956 420.204 405.113 420.043C405.269 419.883 405.388 419.691 405.462 419.479C405.536 419.268 405.563 419.043 405.54 418.82V396.3H409.09C409.301 396.317 409.514 396.288 409.713 396.214C409.912 396.139 410.091 396.022 410.239 395.87C410.388 395.718 410.5 395.535 410.569 395.335C410.639 395.134 410.663 394.921 410.64 394.71V389.9C410.659 389.69 410.633 389.479 410.562 389.28C410.492 389.082 410.379 388.901 410.231 388.751C410.084 388.6 409.905 388.484 409.708 388.409C409.511 388.335 409.3 388.305 409.09 388.32H405.54V386.77C405.542 385.962 405.585 385.154 405.67 384.35C405.73 383.791 405.904 383.25 406.18 382.76C406.36 382.406 406.652 382.122 407.01 381.95C407.513 381.726 408.06 381.62 408.61 381.64C409.144 381.673 409.674 381.521 410.11 381.21C410.305 381.027 410.456 380.803 410.553 380.554C410.65 380.304 410.69 380.037 410.67 379.77V375.04C410.701 374.537 410.556 374.038 410.26 373.63C410.036 373.423 409.77 373.266 409.48 373.172C409.19 373.077 408.883 373.045 408.58 373.08C406.728 373.037 404.888 373.399 403.19 374.14C401.734 374.802 400.446 375.783 399.42 377.01C398.447 378.215 397.717 379.597 397.27 381.08C396.821 382.61 396.592 384.196 396.59 385.79V388.32H393.04C392.641 388.324 392.256 388.465 391.95 388.72C391.793 388.872 391.671 389.056 391.591 389.26C391.512 389.463 391.477 389.682 391.49 389.9V394.71C391.482 394.93 391.52 395.149 391.601 395.354C391.682 395.559 391.804 395.745 391.96 395.9C392.26 396.16 392.643 396.302 393.04 396.3H396.62L396.59 418.82Z" fill="#1C201F"></path><path d="M442.27 419.97C443.735 420.466 445.273 420.713 446.82 420.7C447.284 420.708 447.746 420.644 448.19 420.51C448.506 420.402 448.796 420.228 449.04 420C449.252 419.794 449.399 419.529 449.46 419.24C449.477 419.07 449.477 418.9 449.46 418.73V414.44C449.429 414.225 449.365 414.015 449.27 413.82C449.127 413.545 448.913 413.314 448.65 413.15C448.313 412.942 447.926 412.832 447.53 412.83L446.64 412.77C446.239 412.765 445.845 412.665 445.49 412.48C445.211 412.304 444.978 412.064 444.81 411.78C444.623 411.474 444.497 411.134 444.44 410.78C444.371 410.31 444.338 409.835 444.34 409.36V393.22H447.58C448.041 393.238 448.491 393.081 448.84 392.78C449.041 392.62 449.201 392.413 449.305 392.178C449.41 391.943 449.456 391.687 449.44 391.43V386.98C449.458 386.731 449.422 386.482 449.333 386.249C449.245 386.016 449.108 385.805 448.93 385.63C448.587 385.333 448.144 385.176 447.69 385.19H444.34V378.45C444.336 378.036 444.237 377.629 444.05 377.26C443.928 377.066 443.758 376.908 443.556 376.799C443.355 376.69 443.129 376.636 442.9 376.64C442.737 376.648 442.576 376.675 442.42 376.72L437.04 378.3C436.578 378.401 436.157 378.638 435.83 378.98C435.582 379.334 435.456 379.758 435.47 380.19V385.19H433C432.564 385.2 432.144 385.358 431.81 385.64C431.604 385.815 431.442 386.035 431.334 386.283C431.227 386.531 431.177 386.8 431.19 387.07V391.43C431.181 391.693 431.235 391.954 431.346 392.192C431.457 392.43 431.623 392.638 431.83 392.8C432.161 393.068 432.574 393.216 433 393.22H435.47V410.14C435.456 411.654 435.752 413.155 436.34 414.55C436.872 415.831 437.685 416.976 438.72 417.9C439.777 418.814 440.999 419.516 442.32 419.97" fill="#1C201F"></path><path d="M486.44 393.89C486.031 392.679 485.48 391.521 484.8 390.44C484.098 389.338 483.223 388.355 482.21 387.53C481.125 386.669 479.905 385.993 478.6 385.53C477.066 385.018 475.457 384.771 473.84 384.8C472.024 384.778 470.229 385.186 468.6 385.99C467.465 386.546 466.412 387.256 465.47 388.1V376.8C465.485 376.348 465.332 375.906 465.04 375.56C464.879 375.379 464.679 375.236 464.456 375.141C464.233 375.046 463.992 375.001 463.75 375.01H458.2C457.961 374.99 457.721 375.022 457.496 375.105C457.271 375.189 457.067 375.32 456.899 375.491C456.731 375.662 456.603 375.868 456.524 376.094C456.444 376.321 456.416 376.562 456.44 376.8V418.71C456.416 418.948 456.444 419.189 456.524 419.416C456.603 419.642 456.731 419.848 456.899 420.019C457.067 420.19 457.271 420.321 457.496 420.405C457.721 420.488 457.961 420.52 458.2 420.5H463.75C464 420.508 464.248 420.463 464.479 420.368C464.71 420.274 464.918 420.131 465.09 419.95C465.354 419.592 465.492 419.155 465.48 418.71V401.06C465.467 399.944 465.647 398.835 466.01 397.78C466.309 396.89 466.785 396.07 467.41 395.37C468.005 394.713 468.732 394.189 469.544 393.834C470.356 393.479 471.234 393.3 472.12 393.31C473.116 393.285 474.103 393.498 475 393.93C475.783 394.352 476.465 394.939 477 395.65C477.567 396.44 477.975 397.334 478.2 398.28C478.477 399.368 478.611 400.487 478.6 401.61V418.71C478.57 418.945 478.592 419.183 478.665 419.408C478.738 419.633 478.861 419.838 479.024 420.01C479.187 420.181 479.386 420.314 479.607 420.399C479.827 420.484 480.064 420.518 480.3 420.5H485.86C486.101 420.511 486.342 420.47 486.566 420.38C486.79 420.29 486.993 420.154 487.16 419.98C487.47 419.631 487.631 419.176 487.61 418.71V401.14C487.605 399.935 487.515 398.732 487.34 397.54C487.142 396.301 486.841 395.08 486.44 393.89Z" fill="#1C201F"></path><path d="M502.95 398.56C503.245 397.888 503.603 397.245 504.02 396.64C504.607 395.807 505.307 395.06 506.1 394.42C506.872 393.79 507.74 393.287 508.67 392.93C510.61 392.238 512.73 392.238 514.67 392.93C515.581 393.273 516.432 393.759 517.19 394.37C517.962 395.004 518.636 395.749 519.19 396.58C519.629 397.208 520.004 397.878 520.31 398.58L502.95 398.56ZM528.39 397.13C527.93 395.5 527.233 393.947 526.32 392.52C525.507 391.2 524.495 390.012 523.32 389C519.872 385.992 515.403 384.419 510.831 384.605C506.259 384.791 501.932 386.722 498.74 390C497.131 391.672 495.863 393.642 495.01 395.8C494.101 398.045 493.642 400.448 493.66 402.87C493.654 405.311 494.158 407.726 495.14 409.96C496.1 412.111 497.457 414.062 499.14 415.71C500.809 417.357 502.764 418.685 504.91 419.63C507.102 420.572 509.464 421.055 511.85 421.05C514.093 421.062 516.319 420.665 518.42 419.88C520.711 418.935 522.822 417.602 524.66 415.94C524.837 415.792 524.982 415.609 525.085 415.402C525.189 415.196 525.249 414.971 525.262 414.74C525.275 414.51 525.241 414.279 525.162 414.062C525.082 413.846 524.959 413.647 524.8 413.48L522.04 410.23C521.889 410.005 521.678 409.828 521.43 409.72C521.157 409.646 520.871 409.631 520.592 409.676C520.313 409.721 520.046 409.825 519.81 409.98C519.31 410.33 518.81 410.7 518.36 411.08C517.87 411.463 517.344 411.798 516.79 412.08C516.156 412.408 515.485 412.656 514.79 412.82C513.842 413.033 512.872 413.131 511.9 413.11C510.784 413.112 509.676 412.93 508.62 412.57C507.612 412.223 506.669 411.709 505.83 411.05C504.316 409.811 503.191 408.162 502.59 406.3H525.86C526.353 406.304 526.845 406.264 527.33 406.18C527.771 406.118 528.183 405.923 528.51 405.62C528.809 405.293 529.016 404.893 529.11 404.46C529.187 403.954 529.224 403.442 529.22 402.93C529.242 400.982 528.979 399.042 528.44 397.17" fill="#1C201F"></path><path d="M568.68 393.63C569.873 394.118 570.958 394.839 571.87 395.75C572.771 396.696 573.498 397.793 574.02 398.99C574.554 400.235 574.829 401.575 574.829 402.93C574.829 404.285 574.554 405.625 574.02 406.87C573.509 408.059 572.783 409.143 571.88 410.07C570.964 410.977 569.885 411.703 568.7 412.21C567.496 412.725 566.199 412.988 564.89 412.98C563.594 413 562.311 412.734 561.13 412.2C560.04 411.7 559.065 410.978 558.27 410.08C557.462 409.142 556.838 408.059 556.43 406.89C555.991 405.62 555.771 404.284 555.78 402.94C555.773 401.604 555.999 400.278 556.45 399.02C556.861 397.843 557.485 396.752 558.29 395.8C559.088 394.89 560.065 394.155 561.16 393.64C562.305 393.093 563.561 392.819 564.83 392.84C566.163 392.837 567.484 393.106 568.71 393.63M581.61 375.07H575.94C575.711 375.054 575.481 375.088 575.267 375.171C575.052 375.254 574.859 375.383 574.7 375.549C574.542 375.715 574.422 375.915 574.349 376.133C574.277 376.351 574.253 376.582 574.28 376.81V388.35C573.085 387.375 571.763 386.568 570.35 385.95C568.433 385.137 566.372 384.722 564.29 384.73C561.947 384.698 559.624 385.159 557.471 386.082C555.317 387.006 553.382 388.371 551.79 390.09C550.244 391.777 549.045 393.751 548.26 395.9C546.59 400.553 546.622 405.648 548.35 410.28C549.19 412.43 550.443 414.394 552.04 416.06C553.597 417.679 555.468 418.962 557.54 419.83C559.708 420.74 562.039 421.196 564.39 421.17C566.424 421.169 568.435 420.736 570.29 419.9C571.833 419.177 573.267 418.241 574.55 417.12L574.75 417.98C574.789 418.23 574.856 418.475 574.95 418.71C575.047 418.997 575.181 419.269 575.35 419.52C575.501 419.774 575.698 419.997 575.93 420.18C576.207 420.423 576.562 420.558 576.93 420.56H581.55C581.781 420.581 582.014 420.55 582.231 420.469C582.449 420.389 582.646 420.262 582.809 420.097C582.971 419.931 583.095 419.732 583.171 419.513C583.248 419.294 583.275 419.061 583.25 418.83V376.83C583.271 376.6 583.241 376.368 583.164 376.15C583.086 375.932 582.962 375.734 582.801 375.568C582.639 375.403 582.444 375.275 582.228 375.192C582.012 375.109 581.781 375.075 581.55 375.09" fill="#1C201F"></path><path d="M617.15 402.91C617.157 404.227 616.912 405.534 616.43 406.76C615.998 407.933 615.335 409.008 614.48 409.92C613.641 410.833 612.619 411.559 611.48 412.05C610.268 412.587 608.955 412.857 607.63 412.84C606.332 412.855 605.046 412.589 603.86 412.06C602.727 411.559 601.707 410.835 600.86 409.93C600.028 409.015 599.38 407.949 598.95 406.79C598.012 404.295 598.012 401.545 598.95 399.05C599.377 397.893 600.026 396.829 600.86 395.92C601.711 395.028 602.731 394.314 603.86 393.82C605.06 393.318 606.349 393.059 607.65 393.059C608.951 393.059 610.24 393.318 611.44 393.82C612.574 394.31 613.595 395.028 614.44 395.93C615.293 396.832 615.956 397.897 616.39 399.06C616.872 400.279 617.117 401.579 617.11 402.89M620.6 390.02C618.907 388.366 616.919 387.044 614.74 386.12C611.396 384.72 607.712 384.341 604.152 385.031C600.593 385.722 597.318 387.451 594.74 390C593.086 391.658 591.768 393.621 590.86 395.78C589.91 398.028 589.42 400.444 589.42 402.885C589.42 405.326 589.91 407.742 590.86 409.99C591.773 412.154 593.097 414.121 594.76 415.78C596.425 417.448 598.394 418.782 600.56 419.71C602.796 420.683 605.211 421.177 607.65 421.16C610.112 421.181 612.55 420.687 614.81 419.71C616.98 418.777 618.957 417.448 620.64 415.79C622.335 414.133 623.693 412.163 624.64 409.99C625.606 407.748 626.096 405.331 626.08 402.89C626.099 400.455 625.609 398.044 624.64 395.81C623.688 393.643 622.33 391.678 620.64 390.02" fill="#1C201F"></path><path d="M658.49 410.49C658.381 410.285 658.216 410.116 658.014 410.003C657.812 409.889 657.581 409.836 657.35 409.85C656.946 409.838 656.552 409.973 656.24 410.23C655.82 410.54 655.36 410.88 654.83 411.23C654.307 411.553 653.766 411.847 653.21 412.11C652.593 412.375 651.954 412.586 651.3 412.74C649.337 413.173 647.289 412.995 645.43 412.23C643.11 411.21 641.29 409.311 640.37 406.95C639.849 405.681 639.584 404.322 639.59 402.95C639.563 400.244 640.609 397.637 642.5 395.7C643.378 394.809 644.421 394.096 645.57 393.6C647.846 392.656 650.392 392.595 652.71 393.43C654.036 393.874 655.272 394.552 656.36 395.43C656.516 395.551 656.695 395.64 656.885 395.691C657.076 395.742 657.275 395.755 657.471 395.728C657.667 395.701 657.855 395.635 658.025 395.534C658.195 395.433 658.343 395.299 658.46 395.14L661.22 390.9C661.409 390.603 661.491 390.25 661.45 389.9C661.377 389.498 661.151 389.139 660.82 388.9C659.237 387.602 657.463 386.556 655.56 385.8C653.529 385.034 651.37 384.664 649.2 384.71C646.754 384.683 644.329 385.166 642.08 386.13C637.737 387.974 634.271 391.419 632.4 395.75C631.425 398.003 630.934 400.435 630.96 402.89C630.93 405.394 631.42 407.876 632.4 410.18C634.265 414.553 637.774 418.019 642.17 419.83C644.42 420.761 646.835 421.231 649.27 421.21C650.379 421.209 651.484 421.095 652.57 420.87C653.65 420.649 654.707 420.331 655.73 419.92C656.714 419.532 657.663 419.064 658.57 418.52C659.39 418.031 660.166 417.472 660.89 416.85C661.071 416.717 661.223 416.549 661.337 416.356C661.451 416.163 661.525 415.949 661.554 415.726C661.583 415.504 661.566 415.278 661.505 415.062C661.445 414.846 661.341 414.645 661.2 414.47L658.49 410.49Z" fill="#1C201F"></path><path d="M206.65 322.86C206.61 322.475 206.674 322.086 206.836 321.734C206.998 321.382 207.251 321.08 207.57 320.86L214.16 315.86C214.467 315.575 214.872 315.421 215.29 315.43C215.676 315.459 216.048 315.582 216.376 315.787C216.704 315.993 216.976 316.275 217.17 316.61C217.86 317.585 218.601 318.523 219.39 319.42C221.035 321.311 223.154 322.73 225.53 323.53C226.898 323.975 228.331 324.192 229.77 324.17C231.095 324.165 232.413 323.984 233.69 323.63C234.949 323.299 236.157 322.798 237.28 322.14C238.305 321.532 239.199 320.726 239.91 319.77C240.574 318.851 240.925 317.743 240.91 316.61C240.974 315.458 240.685 314.313 240.08 313.33C239.449 312.475 238.618 311.788 237.66 311.33C236.428 310.726 235.138 310.247 233.81 309.9C232.277 309.5 230.53 309.01 228.57 308.43C225.525 307.536 222.564 306.379 219.72 304.97C217.427 303.851 215.333 302.365 213.52 300.57C211.918 298.945 210.677 296.999 209.88 294.86C209.033 292.504 208.62 290.014 208.66 287.51C208.685 285.24 209.221 283.004 210.23 280.97C211.307 278.711 212.827 276.691 214.7 275.03C216.802 273.176 219.22 271.716 221.84 270.72C227.248 268.763 233.128 268.518 238.68 270.02C240.743 270.604 242.733 271.423 244.61 272.46C246.269 273.376 247.811 274.491 249.2 275.78C250.401 276.913 251.523 278.125 252.56 279.41C252.961 279.884 253.227 280.457 253.33 281.07C253.38 281.57 253.06 282.07 252.33 282.68L246.22 287.68C245.849 288.053 245.346 288.265 244.82 288.27C244.496 288.232 244.184 288.123 243.907 287.95C243.631 287.777 243.396 287.545 243.22 287.27C241.874 285.678 240.268 284.325 238.47 283.27C236.397 282.19 234.076 281.672 231.74 281.77C228.91 281.77 226.74 282.35 225.3 283.54C224.611 284.047 224.052 284.71 223.67 285.475C223.287 286.24 223.092 287.085 223.1 287.94C223.046 289.063 223.402 290.168 224.1 291.05C224.946 291.923 225.969 292.605 227.1 293.05C228.613 293.705 230.174 294.244 231.77 294.66C233.58 295.16 235.65 295.76 237.94 296.43C240.73 297.236 243.393 298.431 245.85 299.98C247.899 301.275 249.723 302.897 251.25 304.78C252.598 306.479 253.637 308.401 254.32 310.46C254.987 312.479 255.325 314.593 255.32 316.72C255.394 319.791 254.645 322.826 253.15 325.51C251.739 327.968 249.816 330.093 247.51 331.74C245.141 333.417 242.498 334.669 239.7 335.44C236.858 336.253 233.916 336.667 230.96 336.67C226.132 336.823 221.344 335.753 217.04 333.56C213.153 331.492 209.862 328.462 207.48 324.76C207.098 324.189 206.827 323.551 206.68 322.88" fill="#1C201F"></path><path d="M312.64 272.11C312.609 271.813 312.644 271.513 312.743 271.232C312.843 270.951 313.004 270.696 313.215 270.485C313.426 270.274 313.681 270.113 313.962 270.013C314.243 269.914 314.543 269.879 314.84 269.91H325.52C325.816 269.871 326.117 269.901 326.4 269.998C326.682 270.096 326.938 270.258 327.146 270.471C327.355 270.685 327.511 270.944 327.602 271.229C327.693 271.513 327.716 271.815 327.67 272.11V333.48C327.716 333.775 327.693 334.077 327.602 334.361C327.511 334.646 327.355 334.905 327.146 335.119C326.938 335.332 326.682 335.494 326.4 335.592C326.117 335.689 325.816 335.719 325.52 335.68H318.65C317.938 335.677 317.252 335.414 316.72 334.94C316.168 334.468 315.791 333.823 315.65 333.11L314.19 326.72C312.104 329.892 309.183 332.429 305.75 334.05C302.381 335.551 298.728 336.311 295.04 336.28C292.088 336.252 289.158 335.773 286.35 334.86C283.306 333.886 280.494 332.296 278.09 330.19C275.428 327.811 273.319 324.88 271.91 321.6C270.185 317.43 269.363 312.941 269.5 308.43V272.11C269.5 270.64 270.2 269.91 271.59 269.91H281.99C282.286 269.871 282.588 269.902 282.87 269.999C283.153 270.096 283.409 270.258 283.619 270.471C283.828 270.685 283.985 270.944 284.077 271.228C284.169 271.512 284.194 271.814 284.15 272.11V308.11C284.189 310.097 284.596 312.061 285.35 313.9C286.041 315.61 287.076 317.16 288.393 318.452C289.709 319.744 291.277 320.751 293 321.41C294.912 322.151 296.949 322.518 299 322.49C300.366 322.44 301.715 322.177 303 321.71C304.648 321.136 306.167 320.242 307.47 319.08C309.008 317.701 310.258 316.033 311.15 314.17C312.24 311.764 312.76 309.14 312.67 306.5L312.64 272.11Z" fill="#1C201F"></path><path d="M358.36 333.48C358.371 333.814 358.289 334.144 358.123 334.433C357.957 334.723 357.713 334.961 357.42 335.12C356.817 335.485 356.125 335.679 355.42 335.68H345.93C345.631 335.724 345.326 335.698 345.04 335.602C344.753 335.507 344.493 335.346 344.28 335.132C344.067 334.918 343.907 334.657 343.814 334.37C343.72 334.083 343.695 333.778 343.74 333.48V272.11C343.695 271.812 343.72 271.507 343.814 271.22C343.907 270.933 344.067 270.672 344.28 270.458C344.493 270.244 344.753 270.083 345.04 269.988C345.326 269.892 345.631 269.866 345.93 269.91H352.93C353.65 269.909 354.343 270.189 354.86 270.69C355.401 271.19 355.777 271.842 355.94 272.56L356.8 279.97C358.017 278.185 359.474 276.577 361.13 275.19C362.656 273.899 364.335 272.8 366.13 271.92C367.87 271.073 369.707 270.442 371.6 270.04C373.464 269.645 375.365 269.448 377.27 269.45C380.193 269.476 383.09 270.011 385.83 271.03C388.791 272.13 391.491 273.832 393.76 276.03C396.273 278.482 398.263 281.418 399.61 284.66C401.227 288.663 402.006 292.954 401.9 297.27V333.56C401.9 334.99 401.21 335.7 399.9 335.7H389.53C389.235 335.748 388.934 335.726 388.649 335.637C388.365 335.547 388.105 335.392 387.891 335.184C387.677 334.976 387.515 334.721 387.418 334.439C387.32 334.157 387.29 333.856 387.33 333.56V297.7C387.336 295.849 386.969 294.016 386.25 292.31C385.543 290.602 384.526 289.039 383.25 287.7C381.958 286.346 380.421 285.25 378.72 284.47C376.913 283.658 374.951 283.249 372.97 283.27C371.199 283.276 369.445 283.615 367.8 284.27C366.058 284.959 364.466 285.977 363.11 287.27C361.671 288.628 360.504 290.246 359.67 292.04C358.754 294.033 358.296 296.207 358.33 298.4L358.36 333.48Z" fill="#1C201F"></path><path d="M431.2 333.48C431.209 333.814 431.125 334.145 430.957 334.434C430.789 334.724 430.544 334.961 430.25 335.12C429.648 335.487 428.956 335.681 428.25 335.68H418.76C418.461 335.724 418.156 335.697 417.869 335.602C417.582 335.507 417.322 335.346 417.108 335.132C416.894 334.918 416.733 334.658 416.638 334.371C416.543 334.084 416.516 333.779 416.56 333.48V272.11C416.516 271.811 416.543 271.506 416.638 271.219C416.733 270.932 416.894 270.672 417.108 270.458C417.322 270.244 417.582 270.083 417.869 269.988C418.156 269.893 418.461 269.866 418.76 269.91H425.76C426.48 269.91 427.172 270.19 427.69 270.69C428.242 271.18 428.636 271.825 428.82 272.54L429.68 279.95C430.893 278.166 432.347 276.557 434 275.17C435.525 273.877 437.204 272.779 439 271.9C440.739 271.05 442.576 270.419 444.47 270.02C446.334 269.625 448.235 269.427 450.14 269.43C453.06 269.456 455.953 269.991 458.69 271.01C461.652 272.108 464.353 273.81 466.62 276.01C469.136 278.46 471.126 281.396 472.47 284.64C474.092 288.641 474.871 292.934 474.76 297.25V333.56C474.76 334.99 474.08 335.7 472.71 335.7H462.36C462.066 335.746 461.766 335.723 461.483 335.633C461.199 335.542 460.941 335.387 460.728 335.179C460.516 334.971 460.354 334.717 460.257 334.436C460.16 334.155 460.131 333.855 460.17 333.56V297.7C460.171 295.849 459.804 294.017 459.09 292.31C458.383 290.602 457.366 289.039 456.09 287.7C454.794 286.346 453.254 285.25 451.55 284.47C449.743 283.658 447.781 283.249 445.8 283.27C444.032 283.275 442.281 283.614 440.64 284.27C438.894 284.956 437.298 285.975 435.94 287.27C434.505 288.628 433.341 290.247 432.51 292.04C431.594 294.033 431.136 296.207 431.17 298.4L431.2 333.48Z" fill="#1C201F"></path><path d="M511.49 353.76C511.282 354.346 510.898 354.852 510.39 355.21C509.933 355.5 509.401 355.65 508.86 355.64H498.94C497.86 355.64 497.18 355.34 496.87 354.73C496.723 354.323 496.658 353.89 496.68 353.457C496.703 353.024 496.811 352.6 497 352.21L505.7 330L482.79 273.4C482.559 272.913 482.446 272.379 482.46 271.84C482.483 271.45 482.626 271.076 482.87 270.77C483.097 270.484 483.403 270.272 483.75 270.16C484.096 270.033 484.462 269.969 484.83 269.97H494.53C495.122 269.968 495.697 270.163 496.165 270.526C496.632 270.888 496.965 271.397 497.11 271.97L512.56 313.86L528.29 271.86C528.433 271.295 528.765 270.796 529.231 270.445C529.696 270.094 530.267 269.912 530.85 269.93H541.85C543 269.93 543.67 270.27 543.85 270.93C544.036 271.619 543.99 272.35 543.72 273.01L511.49 353.76Z" fill="#1C201F"></path><path d="M569.09 322.71C569.055 322.325 569.122 321.938 569.283 321.587C569.445 321.236 569.695 320.934 570.01 320.71L576.6 315.71C576.909 315.429 577.312 315.275 577.73 315.28C578.116 315.308 578.489 315.431 578.817 315.636C579.144 315.842 579.417 316.125 579.61 316.46C580.301 317.434 581.042 318.372 581.83 319.27C582.644 320.182 583.564 320.995 584.57 321.69C585.624 322.401 586.767 322.969 587.97 323.38C589.342 323.825 590.778 324.042 592.22 324.02C593.544 324.013 594.862 323.835 596.14 323.49C597.397 323.15 598.604 322.645 599.73 321.99C600.755 321.382 601.649 320.576 602.36 319.62C603.025 318.702 603.375 317.593 603.36 316.46C603.427 315.307 603.138 314.162 602.53 313.18C601.902 312.323 601.07 311.635 600.11 311.18C598.878 310.578 597.588 310.102 596.26 309.76C594.74 309.35 592.99 308.86 591.03 308.29C587.984 307.395 585.023 306.234 582.18 304.82C579.882 303.705 577.784 302.218 575.97 300.42C574.371 298.792 573.131 296.847 572.33 294.71C571.491 292.352 571.081 289.863 571.12 287.36C571.145 285.09 571.681 282.854 572.69 280.82C573.767 278.564 575.287 276.547 577.16 274.89C579.255 273.025 581.676 271.561 584.3 270.57C587.34 269.419 590.57 268.856 593.82 268.91C596.295 268.895 598.76 269.232 601.14 269.91C603.201 270.5 605.19 271.319 607.07 272.35C608.728 273.273 610.268 274.391 611.66 275.68C612.863 276.804 613.982 278.014 615.01 279.3C615.414 279.774 615.683 280.347 615.79 280.96C615.79 281.46 615.51 281.96 614.79 282.57L608.68 287.56C608.312 287.931 607.813 288.143 607.29 288.15C606.965 288.114 606.653 288.006 606.376 287.833C606.099 287.66 605.864 287.426 605.69 287.15C604.339 285.563 602.734 284.211 600.94 283.15C598.866 282.071 596.546 281.554 594.21 281.65C591.38 281.65 589.21 282.24 587.76 283.42C587.073 283.928 586.517 284.592 586.136 285.357C585.756 286.122 585.562 286.966 585.57 287.82C585.513 288.944 585.869 290.05 586.57 290.93C587.412 291.807 588.436 292.49 589.57 292.93C591.085 293.581 592.646 294.119 594.24 294.54C596.05 295.04 598.12 295.63 600.4 296.3C603.192 297.11 605.857 298.305 608.32 299.85C610.369 301.142 612.19 302.764 613.71 304.65C615.067 306.348 616.11 308.275 616.79 310.34C617.458 312.356 617.796 314.466 617.79 316.59C617.858 319.664 617.109 322.7 615.62 325.39C614.206 327.843 612.283 329.964 609.98 331.61C607.61 333.285 604.967 334.537 602.17 335.31C599.324 336.123 596.38 336.537 593.42 336.54C588.573 336.643 583.779 335.522 579.48 333.28C575.598 331.205 572.31 328.173 569.93 324.47C569.55 323.9 569.275 323.267 569.12 322.6" fill="#1C201F"></path><path d="M631.65 271.85C631.624 271.555 631.666 271.258 631.774 270.982C631.881 270.707 632.051 270.459 632.27 270.26C632.669 269.929 633.171 269.748 633.69 269.75H644.63C644.898 269.737 645.166 269.781 645.416 269.88C645.666 269.978 645.892 270.128 646.08 270.32C646.268 270.526 646.413 270.767 646.505 271.03C646.598 271.293 646.637 271.572 646.62 271.85V333.44C646.62 334.83 645.96 335.53 644.62 335.53H633.69C633.412 335.559 633.132 335.524 632.87 335.428C632.607 335.332 632.371 335.177 632.178 334.975C631.985 334.773 631.84 334.53 631.756 334.264C631.671 333.998 631.649 333.716 631.69 333.44L631.65 271.85Z" fill="#1C201F"></path><path d="M711.67 294.86C710.648 292.422 709.168 290.202 707.31 288.32C705.425 286.415 703.181 284.903 700.707 283.873C698.233 282.843 695.58 282.315 692.9 282.32C690.295 282.285 687.716 282.846 685.36 283.96C683.123 285.023 681.131 286.538 679.51 288.41C677.86 290.339 676.582 292.556 675.74 294.95C674.831 297.491 674.374 300.171 674.39 302.87C674.366 305.593 674.812 308.299 675.71 310.87C676.524 313.261 677.798 315.469 679.46 317.37C681.151 319.292 683.239 320.824 685.581 321.86C687.922 322.896 690.46 323.411 693.02 323.37C695.697 323.382 698.349 322.845 700.81 321.79C703.214 320.763 705.399 319.286 707.25 317.44C709.115 315.575 710.608 313.373 711.65 310.95C712.748 308.427 713.307 305.702 713.29 302.95C713.309 300.184 712.757 297.444 711.67 294.9M727.19 333.42C727.232 333.712 727.206 334.009 727.112 334.289C727.019 334.568 726.862 334.822 726.653 335.03C726.444 335.238 726.189 335.394 725.909 335.486C725.629 335.578 725.331 335.604 725.04 335.56H716.19C715.752 335.564 715.326 335.412 714.99 335.13C714.639 334.825 714.332 334.471 714.08 334.08C713.817 333.68 713.603 333.25 713.44 332.8C713.294 332.406 713.177 332.001 713.09 331.59L712.22 327.88C709.514 330.587 706.344 332.785 702.86 334.37C699.476 335.938 695.79 336.747 692.06 336.74C687.72 336.775 683.419 335.924 679.42 334.24C675.582 332.625 672.114 330.243 669.23 327.24C666.304 324.155 664.011 320.527 662.48 316.56C660.809 312.223 659.981 307.607 660.04 302.96C660.015 298.476 660.801 294.024 662.36 289.82C663.806 285.843 666.021 282.19 668.88 279.07C671.705 275.985 675.137 273.517 678.96 271.82C683.052 270.011 687.486 269.104 691.96 269.16C695.77 269.137 699.543 269.907 703.04 271.42C706.443 272.892 709.556 274.961 712.23 277.53V252.8C712.23 251.37 712.92 250.66 714.23 250.66H725.04C725.329 250.621 725.623 250.65 725.899 250.744C726.174 250.839 726.425 250.996 726.629 251.203C726.834 251.411 726.987 251.663 727.078 251.94C727.168 252.217 727.193 252.512 727.15 252.8L727.19 333.42Z" fill="#1C201F"></path><path d="M766.95 282.82C765.04 283.53 763.258 284.543 761.67 285.82C760.068 287.118 758.654 288.632 757.47 290.32C756.286 292.027 755.341 293.888 754.66 295.85H791.41C790.686 293.829 789.704 291.91 788.49 290.14C787.334 288.454 785.939 286.945 784.35 285.66C782.801 284.406 781.054 283.419 779.18 282.74C777.236 282.049 775.183 281.71 773.12 281.74C771.013 281.722 768.921 282.095 766.95 282.84M790.77 317.04C790.989 317.045 791.206 317.089 791.41 317.17C791.649 317.283 791.853 317.46 792 317.68L797.26 324.12C798.16 325.3 798.1 326.34 797.09 327.23C793.693 330.321 789.781 332.792 785.53 334.53C781.651 336.008 777.531 336.754 773.38 336.73C768.963 336.745 764.59 335.843 760.54 334.08C752.461 330.587 745.995 324.178 742.43 316.13C740.598 312.011 739.667 307.548 739.7 303.04C739.665 298.546 740.511 294.089 742.19 289.92C743.79 285.925 746.138 282.273 749.11 279.16C753.092 275.068 758.068 272.08 763.55 270.487C769.033 268.893 774.835 268.75 780.39 270.07C782.95 270.679 785.433 271.578 787.79 272.75C790.245 273.977 792.542 275.498 794.63 277.28C796.812 279.154 798.7 281.345 800.23 283.78C801.899 286.436 803.185 289.315 804.05 292.33C805.031 295.814 805.509 299.421 805.47 303.04C805.483 303.954 805.413 304.868 805.26 305.77C805.174 306.373 804.889 306.929 804.451 307.351C804.012 307.773 803.445 308.037 802.84 308.1C801.971 308.247 801.091 308.314 800.21 308.3H754.04C754.552 310.55 755.441 312.697 756.67 314.65C757.836 316.524 759.314 318.184 761.04 319.56C762.753 320.91 764.68 321.964 766.74 322.68C768.9 323.419 771.168 323.791 773.45 323.78C775.4 323.813 777.348 323.612 779.25 323.18C780.707 322.844 782.118 322.33 783.45 321.65C784.573 321.095 785.636 320.425 786.62 319.65C787.53 318.92 788.44 318.23 789.33 317.59C789.736 317.29 790.225 317.122 790.73 317.11" fill="#1C201F"></path><path d="M647.48 253.13C647.48 254.823 646.978 256.478 646.037 257.886C645.097 259.293 643.76 260.391 642.196 261.038C640.632 261.686 638.91 261.856 637.25 261.526C635.59 261.195 634.064 260.38 632.867 259.183C631.67 257.986 630.855 256.46 630.524 254.8C630.194 253.139 630.364 251.418 631.012 249.854C631.659 248.29 632.757 246.953 634.164 246.013C635.572 245.072 637.227 244.57 638.92 244.57C640.044 244.569 641.158 244.789 642.197 245.219C643.236 245.649 644.181 246.279 644.976 247.074C645.771 247.869 646.401 248.814 646.831 249.853C647.261 250.892 647.481 252.006 647.48 253.13Z" fill="#1C201F"></path><path d="M530.15 2.64001C525.4 1.58962 520.587 0.854672 515.74 0.440002C508.938 29.25 493.851 55.4386 472.341 75.7748C450.83 96.111 423.836 109.705 394.69 114.88C394.796 119.755 395.213 124.618 395.94 129.44C428.336 123.929 458.373 108.944 482.259 86.3767C506.145 63.8092 522.81 34.6709 530.15 2.64001Z" fill="#1C201F"></path><path d="M597.3 157.44C597.301 162.851 598.055 168.236 599.54 173.44C609.823 157.634 615.946 139.485 617.34 120.68C607.858 130.564 602.565 143.733 602.57 157.43L597.3 157.44Z" fill="#1C201F"></path><path d="M617.39 104.3C617.14 100.81 616.75 97.36 616.19 93.96C605.416 100.685 596.53 110.04 590.367 121.145C584.204 132.25 580.967 144.74 580.96 157.44H575.68C575.67 169.632 578.459 181.664 583.83 192.61C587.655 188.871 591.204 184.861 594.45 180.61C589.343 167.134 588.823 152.35 592.97 138.549C597.118 124.747 605.701 112.699 617.39 104.27V104.3Z" fill="#1C201F"></path><path d="M508.56 0.0599976C507.76 0.0599976 506.96 0 506.16 0C501.875 0.00844135 497.595 0.265537 493.34 0.769997C486.971 23.3996 474.588 43.8802 457.508 60.034C440.428 76.1877 419.289 87.4108 396.34 92.51C395.457 97.528 394.909 102.599 394.7 107.69C422.01 102.578 447.27 89.7093 467.462 70.6229C487.653 51.5365 501.921 27.0395 508.56 0.0599976Z" fill="#1C201F"></path><path d="M458.93 10.56C437.331 20.7937 419.549 37.6367 408.16 58.65C430.253 49.1517 448.249 32.1062 458.93 10.56Z" fill="#1C201F"></path><path d="M485.6 1.95001C479.799 3.02901 474.095 4.5706 468.54 6.56001C462.695 20.8207 453.887 33.6766 442.698 44.2757C431.509 54.8748 418.196 62.9752 403.64 68.04C401.329 73.4922 399.456 79.1201 398.04 84.87C418.531 79.7281 437.354 69.399 452.698 54.8767C468.042 40.3544 479.39 22.1276 485.65 1.95001H485.6Z" fill="#1C201F"></path><path d="M558.9 13.37C551.95 9.59401 544.615 6.57665 537.02 4.37C533.388 20.2301 527.533 35.4976 519.63 49.72C530.777 35.6602 544.022 23.4 558.9 13.37Z" fill="#1C201F"></path><path d="M504.04 73.06C499.868 78.3128 495.397 83.3211 490.65 88.06C465.293 113.47 432.651 130.352 397.26 136.36C407.53 183.19 446.94 219.12 495.33 223.83C485.324 199.668 480.91 173.556 482.418 147.447C483.926 121.339 491.318 95.9091 504.04 73.06Z" fill="#1C201F"></path><path d="M613.35 81.28C612.483 78.2533 611.5 75.2766 610.4 72.35C594.986 80.5849 582.095 92.8488 573.103 107.834C564.111 122.819 559.354 139.964 559.34 157.44H554.04C554.023 174.558 558.352 191.401 566.62 206.39C570.739 203.708 574.677 200.758 578.41 197.56C567.951 177.44 565.75 154.035 572.274 132.318C578.799 110.601 593.534 92.2844 613.35 81.26V81.28Z" fill="#1C201F"></path><path d="M578.24 26.68C575.74 24.5467 573.143 22.5233 570.45 20.61C547.223 35.1019 528.065 55.265 514.778 79.202C501.491 103.139 494.513 130.063 494.5 157.44H489.22C489.19 180.464 493.958 203.241 503.22 224.32C504.22 224.32 505.15 224.4 506.13 224.4C510.398 224.39 514.661 224.136 518.9 223.64C502.295 189.346 499.176 150.066 510.161 113.581C521.145 77.0956 545.432 46.0667 578.21 26.64L578.24 26.68Z" fill="#1C201F"></path><path d="M605.37 61.03C603.957 58.2834 602.44 55.5967 600.82 52.97C581.796 62.9976 565.868 78.0249 554.75 96.4336C543.633 114.842 537.749 135.935 537.73 157.44H532.45C532.421 178.035 537.579 198.305 547.45 216.38C551.96 214.573 556.343 212.465 560.57 210.07C553.55 197.386 549.137 183.427 547.592 169.012C546.047 154.598 547.401 140.02 551.573 126.137C555.745 112.254 562.653 99.345 571.888 88.1707C581.123 76.9964 592.501 67.7821 605.35 61.07L605.37 61.03Z" fill="#1C201F"></path><path d="M593.66 42.76C591.72 40.28 589.677 37.89 587.53 35.59C565.882 47.7336 547.856 65.4208 535.305 86.835C522.753 108.249 516.128 132.619 516.11 157.44H510.84C510.809 180.058 516.102 202.366 526.29 222.56C531.189 221.662 536.02 220.429 540.75 218.87C524.503 188.482 520.948 152.898 530.863 119.896C540.778 86.8952 563.355 59.1619 593.66 42.76Z" fill="#1C201F"></path><path d="M397.14 624.49C415.49 609.71 432.88 595.8 432.88 581.49C432.88 573.76 429.5 567.97 420.03 567.97C410.96 567.97 406.32 574.25 405.93 583.03H397.43C398.01 568.16 407.43 560.44 419.94 560.44C433.07 560.44 441.57 568.16 441.57 581.1C441.57 598.49 422.83 613.26 410.38 623.4H443.6V630.74H397.14V624.49Z" fill="#1C201F"></path><path d="M478.04 560.65C497.26 560.65 502.28 575.91 502.28 595.9C502.28 616.18 497.28 631.54 478.04 631.54C458.8 631.54 453.7 616.18 453.7 595.9C453.74 575.91 458.76 560.65 478.04 560.65ZM478.04 568.65C464.23 568.65 462.39 581.4 462.39 595.89C462.39 610.96 464.23 623.51 478.04 623.51C491.85 623.51 493.59 610.96 493.59 595.89C493.63 581.41 491.79 568.66 478.04 568.66V568.65Z" fill="#1C201F"></path><path d="M513.33 624.49C531.68 609.71 549.04 595.8 549.04 581.56C549.04 573.83 545.66 568.04 536.19 568.04C527.11 568.04 522.48 574.32 522.09 583.1H513.59C514.17 568.23 523.54 560.51 536.1 560.51C549.23 560.51 557.73 568.23 557.73 581.17C557.73 598.56 538.99 613.33 526.53 623.47H559.76V630.81H513.33V624.49Z" fill="#1C201F"></path><path d="M592.63 560.36C606.24 560.36 613.63 568.28 613.63 578.36C613.63 586.36 608.63 592.66 601.27 594.3V594.78C609.38 596.71 614.89 602.7 614.89 612.78C614.89 623.6 607.35 632.1 592.77 632.1C579.54 632.1 569.69 625.05 568.62 611.53H577.12C577.99 618.97 583.4 624.66 592.67 624.66C601.94 624.66 606.48 619.16 606.48 612.01C606.48 602.16 599.63 598.39 587.07 598.39H584.85V591.05H587.17C598.85 590.96 605.17 587.38 605.17 579.27C605.17 572.61 600.73 567.97 592.33 567.97C584.12 567.97 579.19 572.61 578.33 579.37H569.74C570.61 567.31 579.68 560.36 592.63 560.36Z" fill="#1C201F"></path><path d="M76.04 290.23C76.0471 263.057 80.0913 236.035 88.04 210.05L64.5 203.33C55.8972 231.495 51.5163 260.78 51.5 290.23C51.5 430.78 150.59 553.06 295.58 614.43L307.05 592.75C169.87 535.56 76.04 421.4 76.04 290.23Z" fill="#1C201F"></path><path d="M24.51 290.23C24.51 188.94 74.41 96.74 155.71 28.23L138.43 10.92C52.66 83.9 0.039978 182.21 0.039978 290.23C0.039978 421.8 78.12 538.98 199.04 613.5L213.92 594.03C98.83 524.03 24.48 413.88 24.48 290.23" fill="#1C201F"></path><path d="M936.04 290.23C936.033 263.057 931.989 236.035 924.04 210.05L947.58 203.33C956.183 231.495 960.564 260.78 960.58 290.23C960.58 430.78 861.49 553.06 716.5 614.43L705.03 592.75C842.21 535.56 936.04 421.4 936.04 290.23Z" fill="#1C201F"></path><path d="M891.25 289.86C891.25 250.28 877.92 213.12 854.63 181.04L871.7 174.4C895.51 208.59 909.12 247.97 909.12 289.86C909.12 330.95 896.04 369.62 873.12 403.34L857.06 395.34C878.86 364.04 891.29 328.1 891.29 289.89" fill="#1C201F"></path><path d="M123.11 289.86C123.11 250.28 136.43 213.12 159.72 181.04L142.65 174.4C118.84 208.56 105.24 247.97 105.24 289.86C105.24 330.95 118.31 369.62 141.24 403.34L157.3 395.34C135.5 364.04 123.08 328.1 123.08 289.89" fill="#1C201F"></path><path d="M987.57 290.23C987.57 188.94 937.67 96.74 856.37 28.23L873.65 10.96C959.42 83.96 1012.08 182.25 1012.08 290.27C1012.08 421.84 933.96 539.02 813.02 613.54L798.13 594.07C913.22 524.07 987.57 413.92 987.57 290.27" fill="#1C201F"></path><path d="M298.1 477.56H301.27V509.15H298.1V477.56Z" fill="#1C201F"></path><path d="M332.27 477.56V509.15H329.11L311.62 482.56V509.14H308.45V477.56H311.62L329.11 504.09V477.56H332.27Z" fill="#1C201F"></path><path d="M363.28 477.56V509.15H360.12L342.62 482.56V509.14H339.46V477.56H342.62L360.12 504.09V477.56H363.28Z" fill="#1C201F"></path><path d="M384.66 509.5C375.8 509.5 369.02 502.85 369.02 493.36C369.02 483.87 375.8 477.23 384.66 477.23C393.52 477.23 400.3 483.92 400.3 493.36C400.3 502.8 393.56 509.5 384.66 509.5ZM384.66 506.74C391.66 506.74 397.04 501.63 397.04 493.36C397.04 485.09 391.66 480.03 384.66 480.03C377.66 480.03 372.27 485.09 372.27 493.36C372.27 501.63 377.65 506.74 384.66 506.74Z" fill="#1C201F"></path><path d="M427.78 477.56H431.12L419.12 509.15H415.5L403.5 477.56H407.04L417.39 505.72L427.78 477.56Z" fill="#1C201F"></path><path d="M454.17 501.68H439.8L437.05 509.18H433.7L445.23 477.99H448.8L460.28 509.18H456.93L454.17 501.68ZM447.04 481.97L440.8 499.06H453.28L447.04 481.97Z" fill="#1C201F"></path><path d="M463.04 477.56H483.78V480.18H475.04V509.18H471.87V480.18H463.04V477.56Z" fill="#1C201F"></path><path d="M488.84 477.56H492.04V509.15H488.84V477.56Z" fill="#1C201F"></path><path d="M520.89 477.56H524.23L512.23 509.15H508.64L496.64 477.56H500.08L510.43 505.72L520.89 477.56Z" fill="#1C201F"></path><path d="M545.48 480.16H532.14V491.96H544.14V494.56H532.14V506.56H545.48V509.18H528.98V477.56H545.48V480.16Z" fill="#1C201F"></path><path d="M573.68 509.5C567.35 509.5 563.19 505.88 563.01 501.04H566.36C566.63 503.67 568.57 506.83 573.68 506.83C578.06 506.83 580.68 504.25 580.68 501C580.68 491.69 563.32 497.56 563.32 485.68C563.32 480.8 567.32 477.23 573.45 477.23C579.58 477.23 583.08 480.57 583.62 484.91H580.14C579.78 482.69 577.66 479.98 573.27 479.91C569.57 479.91 566.49 481.91 566.49 485.56C566.49 494.69 583.85 489.08 583.85 500.83C583.85 505.16 580.37 509.5 573.68 509.5Z" fill="#1C201F"></path><path d="M587.69 477.56H608.44V480.18H599.67V509.18H596.5V480.18H587.69V477.56Z" fill="#1C201F"></path><path d="M613.32 477.56H616.48V497.44C616.48 504 619.92 506.66 624.84 506.66C629.76 506.66 633.12 504 633.12 497.44V477.56H636.28V497.4C636.28 505.76 631.22 509.47 624.8 509.47C618.38 509.47 613.32 505.76 613.32 497.4V477.56Z" fill="#1C201F"></path><path d="M669.41 493.45C669.41 503.26 663.22 509.18 652.69 509.18H643.33V477.56H652.69C663.22 477.56 669.41 483.56 669.41 493.45ZM652.69 506.56C661.69 506.56 666.2 501.56 666.2 493.45C666.2 485.34 661.64 480.21 652.69 480.21H646.5V506.56H652.69Z" fill="#1C201F"></path><path d="M675.24 477.56H678.41V509.15H675.24V477.56Z" fill="#1C201F"></path><path d="M699.78 509.5C690.93 509.5 684.15 502.85 684.15 493.36C684.15 483.87 690.93 477.23 699.78 477.23C708.63 477.23 715.42 483.92 715.42 493.36C715.42 502.8 708.69 509.5 699.78 509.5ZM699.78 506.74C706.78 506.74 712.17 501.63 712.17 493.36C712.17 485.09 706.79 480.03 699.78 480.03C692.77 480.03 687.4 485.09 687.4 493.36C687.4 501.63 692.78 506.74 699.78 506.74Z" fill="#1C201F"></path></g><defs><clipPath id="clip0_483_161"><rect width="1012.08" height="632.02" fill="white"></rect></clipPath></defs></svg> 